<svg width="1024" height="1024" viewBox="0 0 1024 1024" xmlns="http://www.w3.org/2000/svg">
  <defs>
    <linearGradient id="bgGradient" x1="0%" y1="100%" x2="100%" y2="0%">
      <stop offset="0%" stop-color="#2979FF"/>
      <stop offset="40%" stop-color="#8E24AA"/>
      <stop offset="75%" stop-color="#D81B60"/>
      <stop offset="100%" stop-color="#FF6F00"/>
    </linearGradient>
  </defs>

  <!-- macOS icon grid: 824x824 body on a 1024 canvas (100px margin each
       side, ~80.5%), squircle corner radius ~22.4% of the body. The whole
       38-unit source artwork is scaled up and inset; the original circle
       background is replaced by this rounded square. -->
  <g transform="translate(100,100) scale(21.6842)">
    <rect x="0" y="0" width="38" height="38" rx="8.5" ry="8.5" fill="url(#bgGradient)"/>

    <path
      d="M 16 63 L 29 63 L 40 63 L 50 60 L 54 49 L 50 60 L 42 62 L 29 63 L 16 63 L 16 48 L 16 34 L 31 33 L 33 30 L 37 21 L 35 31 L 35 38 L 37 45 L 35 37 L 35 29 L 31 33 L 23 33 L 16 37 L 16 58 L 16 42 L 16 25 L 16 9 L 24 8 L 15 6 L 28 5 L 38 5 L 48 8 L 50 17 L 48 8 L 41 6 L 29 5 L 16 5 L 4 4 L 0 6 L 0 1 L 4 7 L 4 1 L 8 8 L 8 1 L 11 8 L 12 1 L 15 8 L 16 1 L 19 8 L 20 1 L 23 8 L 24 1 L 23 6 L 36 5 L 48 8 L 50 15 L 53 21 L 48 21 L 53 17 L 47 18 L 53 13 L 46 14 L 53 8 L 46 12 L 53 3 L 45 10 L 48 1 L 43 11 L 43 1 L 42 10 L 39 1 L 38 9 L 35 1 L 34 8 L 31 1 L 31 8 L 28 1 L 27 8 L 24 1 L 23 8 L 23 6 L 16 9 L 16 30 L 23 33 L 30 33 L 35 29 L 37 42 L 40 49 L 35 49 L 40 45 L 34 45 L 40 41 L 33 41 L 40 37 L 30 37 L 40 33 L 30 33 L 28 30 L 31 33 L 31 28 L 36 33 L 28 30 L 34 37 L 33 36 L 28 30 L 35 33 L 36 25 L 35 17 L 40 17 L 34 21 L 40 21 L 33 25 L 40 25 L 30 29 L 40 29 L 30 33 L 40 33 L 28 30 L 33 36 L 28 30 L 34 37 L 25 30 L 28 37 L 23 30 L 23 37 L 16 30 L 16 9 L 5 6 L 25 6 L 7 9 L 25 9 L 7 13 L 25 13 L 7 16 L 25 16 L 7 20 L 25 20 L 7 24 L 25 23 L 7 27 L 25 27 L 7 31 L 25 30 L 7 34 L 25 33 L 7 38 L 25 37 L 7 41 L 25 40 L 7 45 L 25 43 L 7 48 L 25 47 L 7 52 L 25 50 L 7 55 L 25 53 L 7 59 L 25 57 L 5 62 L 27 60 L 18 59 L 24 62 L 11 63 L 0 66 L 0 61 L 4 66 L 3 61 L 8 66 L 7 60 L 13 66 L 11 59 L 17 66 L 15 59 L 21 66 L 18 59 L 25 66 L 22 58 L 30 66 L 27 60 L 35 66 L 31 60 L 40 66 L 35 60 L 45 66 L 40 59 L 50 66 L 43 57 L 54 66 L 52 58 L 54 51 L 53 45 L 58 45 L 52 48 L 57 50 L 50 51 L 56 55 L 48 53 L 55 60 L 46 55 L 54 66 L 54 66"
      stroke="white"
      stroke-width="2"
      stroke-linejoin="round"
      stroke-linecap="round"
      transform="translate(10.5, 8.5) scale(0.32)"
    />
  </g>
</svg>
